<svg width="90" height="62" xmlns="http://www.w3.org/2000/svg" xmlns:xlink="http://www.w3.org/1999/xlink" xmlns:svgjs="http://svgjs.com/svgjs" viewBox="0 0.157 90 61.685" fill="#f5c506"><svg xmlns="http://www.w3.org/2000/svg" width="90" height="62" viewBox="2 2 89 61"><path paint-order="stroke fill markers" fill-rule="evenodd" d="M68.75 63H21.469C10.716 63 2 54.31 2 43.59c0-8.804 5.918-16.153 13.976-18.529-.015-.296-.07-.578-.07-.88 0-7.656 6.226-13.863 13.906-13.863 1.538 0 2.991.308 4.374.768C38.237 5.602 44.706 2 52.062 2c10.577 0 19.389 7.374 21.65 17.235C83.603 21.489 91 30.274 91 40.818 91 53.068 81.038 63 68.75 63zM52.062 40.818V24.182H40.937v16.636H32.42L46.5 54.855l14.08-14.037h-8.518z"/></svg></svg>