<svg width="41" height="40" xmlns="http://www.w3.org/2000/svg" xmlns:xlink="http://www.w3.org/1999/xlink" xmlns:svgjs="http://svgjs.com/svgjs" viewBox="11 10 41 40"><svg width="39" height="38" xmlns="http://www.w3.org/2000/svg" xmlns:xlink="http://www.w3.org/1999/xlink" xmlns:svgjs="http://svgjs.com/svgjs" viewBox="0.214 0 38.573 38" fill="#f5c506" opacity=".502" x="12" y="11"><svg xmlns="http://www.w3.org/2000/svg" xmlns:xlink="http://www.w3.org/1999/xlink" width="39" height="38" viewBox="1.037 1.89 37.514 36.957"><path paint-order="stroke fill markers" fill-rule="evenodd" d="M1.037 11.472l8.957-.335-.06-8.831 3.825 3.603.06 8.831-8.958.335-3.824-3.603zm5.805 5.468l8.957-.335-.06-8.83 3.825 3.603.06 8.83-8.958.336-3.824-3.604zm22.811 21.491l-.06-8.83 8.958-.336-3.825-3.603-8.958.335.06 8.831 3.825 3.603zm-5.805-5.468l-.06-8.83 8.958-.336-3.825-3.604-8.958.336.06 8.83 3.825 3.604zM28.825 1.89l.34 8.825 8.964-.06-3.658 3.768-8.964.06-.34-8.825 3.658-3.768zm-5.551 5.718l.34 8.825 8.964-.059-3.658 3.768-8.964.06-.34-8.826 3.658-3.768zM1.459 30.082l8.964-.06.34 8.825 3.658-3.768-.34-8.825-8.965.06-3.657 3.768zm5.55-5.719l8.965-.06.34 8.826 3.658-3.768-.34-8.825-8.965.06-3.657 3.767z"/></svg></svg><svg width="41" height="40" xmlns="http://www.w3.org/2000/svg" xmlns:xlink="http://www.w3.org/1999/xlink" xmlns:svgjs="http://svgjs.com/svgjs" viewBox="0.199 0 40.603 40" fill="#f5c506" x="11" y="10"><svg xmlns="http://www.w3.org/2000/svg" width="41" height="40" viewBox="1.996 1.996 39.595 39.007"><path paint-order="stroke fill markers" fill-rule="evenodd" d="M1.996 27.841L8.235 21.5l-6.239-6.342h5.292l6.24 6.342-6.24 6.341H1.996zm8.032 0l6.239-6.341-6.24-6.342h5.293l6.24 6.342-6.24 6.341h-5.292zm31.563 0L35.353 21.5l6.238-6.342H36.3L30.06 21.5l6.24 6.341h5.291zm-8.031 0L27.32 21.5l6.24-6.342h-5.292l-6.24 6.342 6.24 6.341h5.292zM15.357 1.996l6.437 6.146 6.437-6.146V7.21l-6.437 6.146-6.437-6.146V1.996zm0 7.913l6.437 6.146 6.437-6.146v5.213l-6.437 6.147-6.437-6.147V9.909zm0 31.095l6.437-6.147 6.437 6.147V35.79l-6.437-6.147-6.437 6.147v5.214zm0-7.913l6.437-6.146 6.437 6.146v-5.213l-6.437-6.147-6.437 6.147v5.213z"/></svg></svg></svg>