<svg width="160" height="134" xmlns="http://www.w3.org/2000/svg" xmlns:xlink="http://www.w3.org/1999/xlink" xmlns:svgjs="http://svgjs.com/svgjs" viewBox="0.379 0 159.242 134" fill="#bc7d00"><svg xmlns="http://www.w3.org/2000/svg" width="160" height="134" viewBox="6.476 1.999 158.045 132.993"><path paint-order="stroke fill markers" fill-rule="evenodd" d="M164.522 17.312l-14.817 15.313v2.553c0 2.799-.436 5.472-1.067 8.068-.345 21.067-6.838 49.002-33.506 71.051-52.456 43.371-108.656 5.105-108.656 5.105 44.45 0 44.45-15.314 44.45-15.314-9.877 0-29.633-20.417-29.633-20.417 4.939 5.104 14.817 0 14.817 0-24.695-15.314-24.695-30.627-24.695-30.627 4.939 5.104 14.817 0 14.817 0-24.695-20.419-9.878-45.94-9.878-45.94 4.939 25.521 69.145 35.73 69.145 35.73l.817-.422c-.504-2.334-.817-7.294-.817-9.787C85.499 14.302 99.872 2 117.602 2c9.758 0 18.394 4.596 24.28 11.699l2.884-1.49L159.583 2l-9.878 20.418 14.817-5.105z"/></svg></svg>